<svg xmlns="http://www.w3.org/2000/svg" width="512" height="512" viewBox="0 0 512 512" version="1.1"><path d="M 225 1.514 C 115.106 15.091, 26 97.904, 4.558 206.388 C -2.285 241.008, -1.403 282.200, 6.915 316.517 C 13.769 344.792, 26.215 373.144, 42.438 397.437 C 53.292 413.690, 61.027 423.115, 74.954 437.060 C 85.025 447.143, 102.854 462.584, 103.498 461.780 C 103.621 461.626, 103.134 457.675, 102.416 453 C 99.786 435.893, 101.196 409.826, 106.047 385.843 C 107.121 380.532, 108 375.956, 108 375.675 C 108 375.395, 103.612 373.712, 98.250 371.936 C 52.466 356.772, 20.418 333.125, 10.717 307.348 C 8.888 302.489, 8.520 299.471, 8.542 289.500 C 8.566 278.836, 8.860 276.813, 11.183 271.328 C 18.697 253.585, 35.009 237.872, 60.021 224.285 C 69.305 219.242, 88.740 211.012, 99.754 207.459 C 104.289 205.996, 108 204.578, 108 204.307 C 108 204.036, 107.116 199.468, 106.036 194.157 C 98.149 155.379, 99.831 120.159, 110.612 98.340 C 114.912 89.636, 123.745 79.715, 131.153 75.268 C 137.803 71.277, 150.222 68, 158.702 68 C 183.035 68, 216.229 84.450, 248.250 112.379 L 256 119.138 263.750 112.379 C 295.771 84.450, 328.965 68, 353.298 68 C 361.778 68, 374.197 71.277, 380.847 75.268 C 388.255 79.715, 397.088 89.636, 401.388 98.340 C 412.169 120.159, 413.851 155.379, 405.964 194.157 C 404.884 199.468, 404 204.044, 404 204.325 C 404 204.606, 407.712 206.049, 412.250 207.533 C 458.895 222.781, 491.536 246.657, 501.273 272.652 C 504.424 281.064, 504.424 298.936, 501.273 307.348 C 491.632 333.087, 459.539 356.770, 413.750 371.936 C 408.388 373.712, 404 375.395, 404 375.675 C 404 375.956, 404.879 380.532, 405.953 385.843 C 410.804 409.826, 412.214 435.893, 409.584 453 C 408.866 457.675, 408.379 461.626, 408.502 461.780 C 409.146 462.584, 426.975 447.143, 437.046 437.060 C 450.973 423.115, 458.708 413.690, 469.562 397.437 C 486.307 372.362, 498.598 343.993, 505.495 314.500 C 508.331 302.373, 511 285.737, 511 280.190 C 511 277.950, 511.450 275.840, 512 275.500 C 512.614 275.120, 513 266.970, 513 254.382 C 513 243.107, 512.614 234.121, 512.141 234.413 C 511.669 234.704, 510.981 231.327, 510.613 226.908 C 509.684 215.767, 505.727 196.524, 501.459 182.388 C 471.885 84.428, 387.632 13.673, 286 1.446 C 271.761 -0.267, 239.123 -0.231, 225 1.514 M 153.461 92.095 C 132.791 94.700, 122.544 118.801, 125.079 158.852 C 125.847 170.984, 129.530 194.621, 131.030 197.049 C 131.560 197.906, 135.939 197.381, 147.625 195.059 C 156.356 193.324, 170.994 190.909, 180.154 189.692 L 196.807 187.479 204.041 177.990 C 213.587 165.468, 217.507 160.692, 229.322 147.193 C 234.765 140.974, 239.057 135.738, 238.859 135.558 C 229.778 127.291, 217.156 117.228, 209.102 111.835 C 186.308 96.574, 168.384 90.215, 153.461 92.095 M 347.470 92.144 C 328.610 94.292, 298.110 112.005, 273.625 135.027 C 273.142 135.481, 277.196 140.929, 282.662 147.175 C 294.493 160.692, 298.410 165.464, 307.959 177.990 L 315.193 187.479 331.846 189.692 C 341.006 190.909, 355.644 193.324, 364.375 195.059 C 376.330 197.434, 380.433 197.918, 380.990 197.016 C 382.418 194.705, 386.149 170.452, 386.931 158.395 C 388.718 130.833, 384.142 110.142, 374.019 100.019 C 366.989 92.989, 359.513 90.771, 347.470 92.144 M 249.415 159.750 C 241.206 168.996, 229 183.758, 229 184.440 C 229 184.748, 241.150 185, 256 185 C 270.850 185, 283 184.748, 283 184.440 C 283 183.124, 257.104 153.030, 255.954 153.010 C 255.653 153.004, 252.711 156.037, 249.415 159.750 M 231 208.984 C 223.025 209.404, 215.048 209.805, 213.272 209.874 C 210.334 209.989, 209.431 210.919, 203.203 220.250 C 191.996 237.041, 174.561 267.319, 166.467 284.047 L 163.783 289.593 170.841 303.682 C 179.955 321.875, 191.080 341.268, 201.513 357.148 L 209.823 369.795 220.661 370.556 C 234.618 371.535, 277.351 371.537, 291.286 370.559 L 302.072 369.803 307.241 362.151 C 316.826 347.964, 330.877 323.866, 339.641 306.586 L 348.351 289.414 338.012 269.957 C 327.283 249.767, 317.787 233.663, 307.895 218.884 L 302.129 210.268 293.314 209.650 C 277.489 208.541, 245.812 208.202, 231 208.984 M 170 214.709 C 161.011 216.277, 137.661 221.006, 137.345 221.321 C 136.918 221.749, 146.958 251.367, 149.727 257.850 L 151.500 261.999 157 251.759 C 161.326 243.705, 171.651 226.044, 178.343 215.250 C 179.137 213.969, 175.568 213.737, 170 214.709 M 333.537 215.094 C 334.003 215.867, 337.143 221, 340.514 226.500 C 343.885 232, 349.708 242.125, 353.455 249 C 357.202 255.875, 360.356 261.611, 360.464 261.746 C 360.774 262.137, 366.945 245.570, 371.143 233.074 C 373.254 226.790, 374.822 221.489, 374.627 221.293 C 374.045 220.712, 344.884 215.121, 338.547 214.377 C 333.660 213.802, 332.830 213.921, 333.537 215.094 M 100.715 232.039 C 86.812 237.096, 69.503 245.373, 60 251.510 C 49.748 258.130, 38.081 269.973, 34.464 277.431 C 30.434 285.743, 30.435 294.262, 34.467 302.569 C 40.325 314.634, 57.315 328.536, 78.530 338.619 C 89.039 343.615, 110.956 352, 113.504 352 C 114.146 352, 115.425 349.291, 116.346 345.979 C 118.492 338.259, 128.604 311.212, 133.803 299.285 L 137.820 290.071 133.022 278.749 C 126.902 264.308, 118.725 242.314, 116.478 234.250 C 115.242 229.813, 114.267 228.017, 113.118 228.058 C 112.228 228.090, 106.647 229.881, 100.715 232.039 M 395.522 234.250 C 393.275 242.314, 385.098 264.308, 378.978 278.749 L 374.180 290.071 378.197 299.285 C 383.410 311.244, 393.298 337.763, 395.523 345.750 C 396.508 349.289, 397.823 352, 398.554 352 C 401.048 352, 422.618 343.707, 433.554 338.544 C 447.765 331.835, 458.703 324.451, 467.577 315.577 C 476.826 306.327, 480.412 299.182, 480.412 290 C 480.412 280.648, 476.857 273.695, 467.080 263.926 C 458.161 255.015, 448.668 248.656, 433.416 241.376 C 422.922 236.368, 401.057 228, 398.464 228 C 397.804 228, 396.480 230.813, 395.522 234.250 M 0.423 255.500 C 0.424 267.050, 0.570 271.638, 0.747 265.696 C 0.924 259.753, 0.923 250.303, 0.745 244.696 C 0.567 239.088, 0.422 243.950, 0.423 255.500 M 251.500 243.668 C 240.737 244.986, 231.703 249.234, 223.962 256.618 C 214.464 265.677, 209.755 276.743, 209.755 290 C 209.755 303.253, 214.464 314.323, 223.953 323.374 C 233.227 332.219, 243.250 336.245, 256 336.245 C 269.253 336.245, 280.323 331.536, 289.374 322.047 C 298.219 312.773, 302.245 302.750, 302.245 290 C 302.245 269.307, 288.714 251.062, 269.284 245.557 C 263.732 243.984, 255.801 243.142, 251.500 243.668 M 148.517 325.213 C 144.479 335.942, 136.976 358.310, 137.306 358.639 C 137.846 359.179, 167.515 364.876, 173.416 365.573 L 179.331 366.272 176.972 362.386 C 175.675 360.249, 172.532 355.125, 169.987 351 C 167.442 346.875, 162.293 337.875, 158.546 331 C 154.798 324.125, 151.626 318.371, 151.496 318.213 C 151.366 318.055, 150.025 321.205, 148.517 325.213 M 354.977 328.292 C 350.585 336.449, 343.813 348.012, 333.254 365.383 C 332.950 365.884, 335.262 365.965, 338.609 365.570 C 344.491 364.876, 374.155 359.178, 374.694 358.639 C 375.192 358.141, 361.677 319.353, 360.642 318.310 C 360.538 318.206, 357.989 322.698, 354.977 328.292 M 130.613 383.750 C 128.741 390.033, 125.838 409.533, 125.124 420.621 C 122.736 457.713, 130.886 480.653, 148.596 486.687 C 154.866 488.824, 168.399 488.030, 177 485.022 C 192.487 479.605, 213.490 466.546, 230.206 451.941 C 234.768 447.955, 238.662 444.564, 238.859 444.404 C 239.057 444.245, 234.744 439.026, 229.274 432.807 C 218.699 420.782, 205.178 404.026, 200.128 396.686 C 197.138 392.340, 196.917 392.225, 190.285 391.554 C 178.734 390.384, 157.044 386.975, 145 384.435 C 131.248 381.535, 131.273 381.537, 130.613 383.750 M 371 383.582 C 362.895 385.586, 338.084 389.692, 325.700 391.077 L 314.900 392.286 311.857 396.708 C 306.818 404.032, 293.287 420.799, 282.710 432.825 C 277.232 439.054, 273.144 444.490, 273.625 444.906 C 274.106 445.321, 278.107 448.792, 282.515 452.618 C 298.708 466.673, 318.969 479.254, 334.136 484.673 C 343.851 488.144, 356.633 488.947, 363.876 486.541 C 370.044 484.492, 376.868 478.184, 380.300 471.356 C 387.947 456.144, 389.387 427.526, 384.027 397.303 C 380.930 379.843, 381.916 380.882, 371 383.582 M 229 395.557 C 229 396.145, 245.052 415.340, 251.948 423 L 256 427.500 260.052 423 C 266.948 415.340, 283 396.145, 283 395.557 C 283 395.251, 270.850 395, 256 395 C 241.150 395, 229 395.251, 229 395.557 M 248 467.657 C 231.951 481.700, 215.389 493.233, 201.110 500.308 L 192.669 504.491 198.085 505.742 C 218.781 510.524, 227.981 511.427, 256 511.427 C 284.019 511.427, 293.219 510.524, 313.915 505.742 L 319.331 504.491 310.890 500.308 C 296.599 493.227, 278.257 480.430, 262.914 466.835 C 259.291 463.626, 256.141 461.021, 255.914 461.047 C 255.686 461.073, 252.125 464.047, 248 467.657" stroke="none" fill="#5cdcfc" fill-rule="evenodd"/><path d="M 144.032 70.065 C 111.304 78.633, 96.026 115.990, 102.545 171.500 C 103.385 178.650, 104.956 188.846, 106.036 194.157 C 107.116 199.468, 108 204.036, 108 204.307 C 108 204.578, 104.289 205.996, 99.754 207.459 C 88.740 211.012, 69.305 219.242, 60.021 224.285 C 35.009 237.872, 18.697 253.585, 11.183 271.328 C 8.860 276.813, 8.566 278.836, 8.542 289.500 C 8.520 299.471, 8.888 302.489, 10.717 307.348 C 20.418 333.125, 52.466 356.772, 98.250 371.936 C 103.612 373.712, 108 375.395, 108 375.675 C 108 375.956, 107.121 380.532, 106.047 385.843 C 101.442 408.609, 99.814 434.777, 102.024 450.500 C 103.800 463.140, 103.272 462.309, 114.115 469.528 C 133.726 482.583, 154.007 492.283, 177.984 500.076 L 192.468 504.783 202.617 499.508 C 217.723 491.657, 229.514 483.430, 246.784 468.692 L 256.068 460.769 262.784 466.720 C 277.951 480.159, 294.335 491.687, 309.383 499.508 L 319.532 504.783 334.016 500.076 C 357.971 492.291, 378.234 482.578, 398.183 469.318 C 408.698 462.330, 408.202 463.121, 409.976 450.500 C 412.186 434.777, 410.558 408.609, 405.953 385.843 C 404.879 380.532, 404 375.956, 404 375.675 C 404 375.395, 408.387 373.712, 413.750 371.936 C 459.539 356.770, 491.632 333.087, 501.273 307.348 C 504.424 298.936, 504.424 281.064, 501.273 272.652 C 491.536 246.657, 458.895 222.781, 412.250 207.533 C 407.713 206.049, 404 204.606, 404 204.325 C 404 204.044, 404.884 199.468, 405.964 194.157 C 413.851 155.379, 412.169 120.159, 401.388 98.340 C 397.088 89.636, 388.255 79.715, 380.847 75.268 C 374.197 71.277, 361.778 68, 353.298 68 C 328.965 68, 295.771 84.450, 263.750 112.379 L 256 119.138 248.250 112.379 C 229.019 95.605, 208.808 82.514, 191.332 75.510 C 172.371 67.911, 158.401 66.303, 144.032 70.065 M 153.461 92.095 C 132.791 94.700, 122.544 118.801, 125.079 158.852 C 125.847 170.984, 129.530 194.621, 131.030 197.049 C 131.560 197.906, 135.939 197.381, 147.625 195.059 C 156.356 193.324, 170.994 190.909, 180.154 189.692 L 196.807 187.479 204.041 177.990 C 213.587 165.468, 217.507 160.692, 229.322 147.193 C 234.765 140.974, 239.057 135.738, 238.859 135.558 C 229.778 127.291, 217.156 117.228, 209.102 111.835 C 186.308 96.574, 168.384 90.215, 153.461 92.095 M 347.470 92.144 C 328.610 94.292, 298.110 112.005, 273.625 135.027 C 273.142 135.481, 277.196 140.929, 282.662 147.175 C 294.493 160.692, 298.410 165.464, 307.959 177.990 L 315.193 187.479 331.846 189.692 C 341.006 190.909, 355.644 193.324, 364.375 195.059 C 376.330 197.434, 380.433 197.918, 380.990 197.016 C 382.418 194.705, 386.149 170.452, 386.931 158.395 C 388.718 130.833, 384.142 110.142, 374.019 100.019 C 366.989 92.989, 359.513 90.771, 347.470 92.144 M 249.415 159.750 C 241.206 168.996, 229 183.758, 229 184.440 C 229 184.748, 241.150 185, 256 185 C 270.850 185, 283 184.748, 283 184.440 C 283 183.124, 257.104 153.030, 255.954 153.010 C 255.653 153.004, 252.711 156.037, 249.415 159.750 M 231 208.984 C 223.025 209.404, 215.048 209.805, 213.272 209.874 C 210.334 209.989, 209.431 210.919, 203.203 220.250 C 191.996 237.041, 174.561 267.319, 166.467 284.047 L 163.783 289.593 170.841 303.682 C 179.955 321.875, 191.080 341.268, 201.513 357.148 L 209.823 369.795 220.661 370.556 C 234.618 371.535, 277.351 371.537, 291.286 370.559 L 302.072 369.803 307.241 362.151 C 316.826 347.964, 330.877 323.866, 339.641 306.586 L 348.351 289.414 338.012 269.957 C 327.283 249.767, 317.787 233.663, 307.895 218.884 L 302.129 210.268 293.314 209.650 C 277.489 208.541, 245.812 208.202, 231 208.984 M 170 214.709 C 161.011 216.277, 137.661 221.006, 137.345 221.321 C 136.918 221.749, 146.958 251.367, 149.727 257.850 L 151.500 261.999 157 251.759 C 161.326 243.705, 171.651 226.044, 178.343 215.250 C 179.137 213.969, 175.568 213.737, 170 214.709 M 333.537 215.094 C 334.003 215.867, 337.143 221, 340.514 226.500 C 343.885 232, 349.708 242.125, 353.455 249 C 357.202 255.875, 360.356 261.611, 360.464 261.746 C 360.774 262.137, 366.945 245.570, 371.143 233.074 C 373.254 226.790, 374.822 221.489, 374.627 221.293 C 374.045 220.712, 344.884 215.121, 338.547 214.377 C 333.660 213.802, 332.830 213.921, 333.537 215.094 M 100.715 232.039 C 86.812 237.096, 69.503 245.373, 60 251.510 C 49.748 258.130, 38.081 269.973, 34.464 277.431 C 30.434 285.743, 30.435 294.262, 34.467 302.569 C 40.325 314.634, 57.315 328.536, 78.530 338.619 C 89.039 343.615, 110.956 352, 113.504 352 C 114.146 352, 115.425 349.291, 116.346 345.979 C 118.492 338.259, 128.604 311.212, 133.803 299.285 L 137.820 290.071 133.022 278.749 C 126.902 264.308, 118.725 242.314, 116.478 234.250 C 115.242 229.813, 114.267 228.017, 113.118 228.058 C 112.228 228.090, 106.647 229.881, 100.715 232.039 M 395.522 234.250 C 393.275 242.314, 385.098 264.308, 378.978 278.749 L 374.180 290.071 378.197 299.285 C 383.410 311.244, 393.298 337.763, 395.523 345.750 C 396.508 349.289, 397.823 352, 398.554 352 C 401.048 352, 422.618 343.707, 433.554 338.544 C 447.765 331.835, 458.703 324.451, 467.577 315.577 C 476.826 306.327, 480.412 299.182, 480.412 290 C 480.412 280.648, 476.857 273.695, 467.080 263.926 C 458.161 255.015, 448.668 248.656, 433.416 241.376 C 422.922 236.368, 401.057 228, 398.464 228 C 397.804 228, 396.480 230.813, 395.522 234.250 M 251.500 243.668 C 240.737 244.986, 231.703 249.234, 223.962 256.618 C 214.464 265.677, 209.755 276.743, 209.755 290 C 209.755 303.253, 214.464 314.323, 223.953 323.374 C 233.227 332.219, 243.250 336.245, 256 336.245 C 269.253 336.245, 280.323 331.536, 289.374 322.047 C 298.219 312.773, 302.245 302.750, 302.245 290 C 302.245 269.307, 288.714 251.062, 269.284 245.557 C 263.732 243.984, 255.801 243.142, 251.500 243.668 M 148.517 325.213 C 144.479 335.942, 136.976 358.310, 137.306 358.639 C 137.846 359.179, 167.515 364.876, 173.416 365.573 L 179.331 366.272 176.972 362.386 C 175.675 360.249, 172.532 355.125, 169.987 351 C 167.442 346.875, 162.293 337.875, 158.546 331 C 154.798 324.125, 151.626 318.371, 151.496 318.213 C 151.366 318.055, 150.025 321.205, 148.517 325.213 M 354.977 328.292 C 350.585 336.449, 343.813 348.012, 333.254 365.383 C 332.950 365.884, 335.262 365.965, 338.609 365.570 C 344.491 364.876, 374.155 359.178, 374.694 358.639 C 375.192 358.141, 361.677 319.353, 360.642 318.310 C 360.538 318.206, 357.989 322.698, 354.977 328.292 M 130.613 383.750 C 128.741 390.033, 125.838 409.533, 125.124 420.621 C 122.736 457.713, 130.886 480.653, 148.596 486.687 C 154.866 488.824, 168.399 488.030, 177 485.022 C 192.487 479.605, 213.490 466.546, 230.206 451.941 C 234.768 447.955, 238.662 444.564, 238.859 444.404 C 239.057 444.245, 234.744 439.026, 229.274 432.807 C 218.699 420.782, 205.178 404.026, 200.128 396.686 C 197.138 392.340, 196.917 392.225, 190.285 391.554 C 178.734 390.384, 157.044 386.975, 145 384.435 C 131.248 381.535, 131.273 381.537, 130.613 383.750 M 371 383.582 C 362.895 385.586, 338.084 389.692, 325.700 391.077 L 314.900 392.286 311.857 396.708 C 306.818 404.032, 293.287 420.799, 282.710 432.825 C 277.232 439.054, 273.144 444.490, 273.625 444.906 C 274.106 445.321, 278.107 448.792, 282.515 452.618 C 298.708 466.673, 318.969 479.254, 334.136 484.673 C 343.851 488.144, 356.633 488.947, 363.876 486.541 C 370.044 484.492, 376.868 478.184, 380.300 471.356 C 387.947 456.144, 389.387 427.526, 384.027 397.303 C 380.930 379.843, 381.916 380.882, 371 383.582 M 229 395.557 C 229 396.145, 245.052 415.340, 251.948 423 L 256 427.500 260.052 423 C 266.948 415.340, 283 396.145, 283 395.557 C 283 395.251, 270.850 395, 256 395 C 241.150 395, 229 395.251, 229 395.557" stroke="none" fill="#f2f3f4" fill-rule="evenodd"/></svg>