<svg xmlns="http://www.w3.org/2000/svg" width="512" height="306" viewBox="0 0 512 306" version="1.1"><path d="" stroke="none" fill="#08b4d4" fill-rule="evenodd"/><path d="M 231.798 1.465 C 203.265 5.544, 183.011 15.086, 164.862 33 C 153.328 44.384, 146.410 54.074, 139.514 68.500 C 135.274 77.369, 127.633 99.405, 128.206 101.111 C 128.368 101.592, 131.550 98.380, 135.278 93.973 C 146.961 80.162, 162.953 69.140, 178 64.529 C 186.525 61.916, 202.936 61.401, 212.957 63.431 C 231.019 67.091, 239.427 72.739, 267.892 100.331 C 301.224 132.640, 316.925 142.310, 348 149.668 C 356.658 151.718, 362.008 152.250, 378.500 152.704 C 408.777 153.536, 427.092 150.085, 448.500 139.511 C 476.994 125.438, 496.568 100.995, 508.492 64.593 C 512.779 51.506, 512.947 49.245, 509.276 54 C 499.976 66.046, 485.868 78.073, 474.144 83.950 C 456.680 92.704, 433.642 93.555, 414.192 86.165 C 404.838 82.611, 394.723 74.754, 376 56.500 C 355.674 36.683, 348.440 30.382, 337.669 23.114 C 323.036 13.240, 304.424 5.722, 286.500 2.446 C 274.166 0.192, 244.436 -0.341, 231.798 1.465 M 98.701 155 C 50.733 163.725, 19.738 191.859, 3.508 241.407 C -0.779 254.494, -0.947 256.755, 2.724 252 C 12.471 239.376, 26.610 227.505, 38.936 221.598 C 50 216.296, 58.789 214.671, 73.330 215.241 C 97.390 216.183, 107.559 221.740, 136 249.488 C 156.314 269.306, 163.548 275.610, 174.331 282.886 C 189.002 292.785, 207.694 300.326, 225.500 303.527 C 246.390 307.282, 276.092 306.421, 295.585 301.495 C 317.483 295.961, 332.012 287.930, 347.138 273 C 358.672 261.616, 365.590 251.926, 372.486 237.500 C 376.726 228.631, 384.367 206.595, 383.794 204.889 C 383.632 204.408, 380.450 207.620, 376.722 212.027 C 365.039 225.838, 349.047 236.860, 334 241.471 C 325.475 244.084, 309.064 244.599, 299.043 242.569 C 280.981 238.909, 272.573 233.261, 244.108 205.669 C 210.783 173.367, 195.133 163.726, 164 156.321 C 154.875 154.150, 150.619 153.771, 131.500 153.429 C 112.787 153.095, 107.886 153.329, 98.701 155" stroke="none" fill="#04b4d4" fill-rule="evenodd"/></svg>