<svg xmlns="http://www.w3.org/2000/svg" width="512" height="512" viewBox="0 0 512 512" version="1.1"><path d="M 200.973 1.704 C 197.559 4.056, 196.443 5.584, 193.036 12.563 C 187.254 24.406, 187.006 39.269, 192.390 51.273 C 193.679 54.148, 197.634 60.365, 201.179 65.089 C 208.993 75.501, 211.486 82.355, 210.758 91.422 C 210.143 99.089, 207.771 104.476, 201.038 113.500 C 196.373 119.753, 195.869 120.909, 196.323 124.328 C 197.263 131.415, 203.826 135.353, 210.235 132.675 C 214.102 131.059, 221.679 121.589, 225.971 113.007 C 234.667 95.617, 233.099 75.283, 221.769 58.519 C 218.871 54.231, 215.250 48.876, 213.723 46.618 C 207.730 37.758, 207.678 28.844, 213.559 18.328 C 216.490 13.087, 217.070 11.185, 216.562 8.477 C 215.259 1.533, 206.648 -2.208, 200.973 1.704 M 147.418 22.969 C 144.763 24.043, 140.500 29.102, 137.800 34.384 C 131.459 46.785, 131.439 63.220, 137.751 75.500 C 138.882 77.700, 142.144 82.650, 145 86.500 C 153.528 97.995, 155.261 102.487, 155.138 112.784 C 155.047 120.411, 152.642 126.492, 146.338 135.038 C 139.646 144.111, 139.138 148.459, 144.219 153.204 C 147.068 155.866, 147.956 156.152, 151.958 155.701 C 155.837 155.264, 157.074 154.505, 160.672 150.358 C 170.382 139.166, 175.061 128.097, 175.782 114.614 C 176.589 99.542, 173.048 89.229, 162.011 74.500 C 155.354 65.617, 154.014 62.156, 154.006 53.833 C 154.001 49.273, 154.684 46.877, 157.500 41.569 C 161.354 34.305, 161.883 29.645, 159.228 26.367 C 155.989 22.369, 151.847 21.177, 147.418 22.969 M 257.324 23.612 C 250.676 26.890, 244.855 39.607, 244.204 52.273 C 243.519 65.608, 246.353 74.040, 255.607 86.194 C 263.718 96.846, 265.261 100.306, 265.776 109 C 266.338 118.490, 265.081 123.082, 259.755 130.998 C 257.415 134.477, 254.715 138.488, 253.755 139.912 C 250.973 144.040, 251.468 149.622, 254.923 153.077 C 260.211 158.365, 266.932 156.615, 273.116 148.339 C 283.026 135.079, 287 124.811, 287 112.468 C 287 98.798, 283.306 88.511, 273.931 76.069 C 266.516 66.229, 264.800 62.200, 264.800 54.636 C 264.800 49.747, 265.442 47.456, 268.400 41.794 C 272.995 32.997, 273.034 29.834, 268.600 25.400 C 264.838 21.638, 262.181 21.217, 257.324 23.612 M 4.961 176.461 C -0.253 179.298, -0.178 178.270, 0.291 240.570 C 0.768 303.842, 0.773 303.900, 7.408 328.255 C 18.041 367.288, 42.292 405.357, 73.391 431.836 L 78.282 436 42.064 436 L 5.846 436 2.923 438.923 C 0.300 441.546, 0 442.504, 0 448.263 C 0 464.080, 7.048 480.097, 19.475 492.525 C 28.730 501.780, 37.677 506.976, 49.609 510.028 C 57.130 511.951, 61.373 512, 222 512 C 382.627 512, 386.870 511.951, 394.391 510.028 C 406.323 506.976, 415.270 501.780, 424.525 492.525 C 436.912 480.137, 444 464.077, 444 448.396 C 444 443.195, 443.584 441.628, 441.587 439.306 L 439.174 436.500 390.761 436 L 342.348 435.500 351.702 427.187 C 362.213 417.846, 372.116 406.652, 381.168 393.881 L 387.278 385.261 407.889 384.699 C 430.231 384.090, 438.023 382.867, 450.722 377.978 C 478.105 367.433, 500.111 343.351, 508.353 314.909 C 512.364 301.069, 513.017 288.874, 512.788 232.076 C 512.669 202.600, 512.339 186.749, 512.038 196 C 511.658 207.665, 511.207 212.008, 510.499 210.820 C 507.738 206.183, 506.016 206.013, 461.750 206.006 L 420 206 419.978 193.750 C 419.954 180.688, 419.306 178.669, 414.316 176.117 C 412.746 175.314, 381.144 175, 302 175 C 222.856 175, 191.254 175.314, 189.684 176.117 C 183.378 179.342, 182.093 186.833, 186.918 192.234 L 189.836 195.500 295.035 195.768 L 400.233 196.036 399.700 242.268 C 399.407 267.696, 398.670 292.100, 398.064 296.500 C 396.607 307.064, 391.547 327.380, 387.927 337.197 C 373.576 376.119, 345.819 410.345, 310.412 432.777 L 305.325 436 210 436 L 114.675 436 109.588 432.777 C 74.181 410.345, 46.424 376.119, 32.073 337.197 C 28.453 327.380, 23.393 307.064, 21.936 296.500 C 21.330 292.100, 20.593 267.709, 20.300 242.298 L 19.767 196.096 55.467 195.798 L 91.166 195.500 94.083 192.234 C 98.907 186.833, 97.621 179.342, 91.316 176.117 C 87.831 174.335, 8.287 174.652, 4.961 176.461 M 137.826 176.712 C 130.729 181.115, 131.616 191.270, 139.381 194.515 C 143.378 196.185, 147.313 195.414, 150.364 192.364 C 154.935 187.792, 154.128 180.268, 148.712 176.966 C 144.809 174.586, 141.381 174.506, 137.826 176.712 M 0.467 235.500 C 0.467 265.750, 0.594 278.269, 0.749 263.321 C 0.905 248.372, 0.905 223.622, 0.749 208.321 C 0.594 193.019, 0.467 205.250, 0.467 235.500 M 420 236.500 L 420 246 441.435 246 C 453.224 246, 463.981 246.422, 465.339 246.939 C 466.697 247.455, 468.751 248.890, 469.904 250.127 C 471.902 252.271, 471.999 253.414, 471.988 274.439 C 471.975 298.755, 471.358 302.741, 465.869 313.955 C 463.767 318.251, 460.232 322.943, 455.583 327.611 C 444.669 338.568, 433.214 343.549, 416.330 344.678 L 407.161 345.291 405.435 349.896 C 404.485 352.428, 402.613 356.694, 401.274 359.376 L 398.839 364.252 413.669 363.735 C 430.883 363.134, 438.865 361.233, 451.473 354.728 C 463.169 348.693, 476.975 334.710, 482.800 323 C 490.679 307.158, 491.236 303.414, 491.752 262.750 L 492.207 227 456.103 227 L 420 227 420 236.500 M 356.230 263.551 C 352.680 266.038, 352.007 268.269, 351.049 280.727 C 349.955 294.962, 347.869 305.517, 343.781 317.500 C 337.969 334.537, 327.767 352.285, 316.574 364.829 C 313.501 368.272, 310.270 372.184, 309.394 373.522 C 305.109 380.062, 309.647 389, 317.253 389 C 322.627 389, 323.954 388.087, 331.860 378.953 C 356.448 350.547, 371.919 311.301, 371.983 277.173 C 371.999 268.187, 371.893 267.739, 369.077 264.923 C 365.709 261.555, 359.957 260.941, 356.230 263.551 M 420 277.276 C 420 288.965, 418.766 300.259, 415.991 313.955 C 414.938 319.155, 414.288 323.621, 414.546 323.880 C 415.470 324.803, 427.274 322.046, 431.820 319.845 C 434.365 318.613, 438.345 315.708, 440.663 313.390 C 448.969 305.084, 451.978 295.352, 451.992 276.750 L 452 267 436 267 L 420 267 420 277.276 M 279.775 395.559 C 274.143 398.615, 273.217 405.973, 277.816 411.121 C 284.019 418.062, 295 413.452, 295 403.907 C 295 395.987, 287.035 391.619, 279.775 395.559 M 22 456.962 C 22 459.944, 26.580 469.268, 30.475 474.215 C 35.901 481.107, 43.200 486.208, 51.978 489.245 L 58.500 491.500 222 491.500 L 385.500 491.500 392.022 489.245 C 400.800 486.208, 408.099 481.107, 413.525 474.215 C 417.420 469.268, 422 459.944, 422 456.962 C 422 456.349, 349.470 456, 222 456 C 94.530 456, 22 456.349, 22 456.962" stroke="none" fill="#000000" fill-rule="evenodd"/><path d="M 200.973 1.704 C 197.559 4.056, 196.443 5.584, 193.036 12.563 C 187.254 24.406, 187.006 39.269, 192.390 51.273 C 193.679 54.148, 197.634 60.365, 201.179 65.089 C 208.993 75.501, 211.486 82.355, 210.758 91.422 C 210.143 99.089, 207.771 104.476, 201.038 113.500 C 196.373 119.753, 195.869 120.909, 196.323 124.328 C 197.263 131.415, 203.826 135.353, 210.235 132.675 C 214.102 131.059, 221.679 121.589, 225.971 113.007 C 234.667 95.617, 233.099 75.283, 221.769 58.519 C 218.871 54.231, 215.250 48.876, 213.723 46.618 C 207.730 37.758, 207.678 28.844, 213.559 18.328 C 216.490 13.087, 217.070 11.185, 216.562 8.477 C 215.259 1.533, 206.648 -2.208, 200.973 1.704 M 147.418 22.969 C 144.763 24.043, 140.500 29.102, 137.800 34.384 C 131.459 46.785, 131.439 63.220, 137.751 75.500 C 138.882 77.700, 142.144 82.650, 145 86.500 C 153.528 97.995, 155.261 102.487, 155.138 112.784 C 155.047 120.411, 152.642 126.492, 146.338 135.038 C 139.646 144.111, 139.138 148.459, 144.219 153.204 C 147.068 155.866, 147.956 156.152, 151.958 155.701 C 155.837 155.264, 157.074 154.505, 160.672 150.358 C 170.382 139.166, 175.061 128.097, 175.782 114.614 C 176.589 99.542, 173.048 89.229, 162.011 74.500 C 155.354 65.617, 154.014 62.156, 154.006 53.833 C 154.001 49.273, 154.684 46.877, 157.500 41.569 C 161.354 34.305, 161.883 29.645, 159.228 26.367 C 155.989 22.369, 151.847 21.177, 147.418 22.969 M 257.324 23.612 C 250.676 26.890, 244.855 39.607, 244.204 52.273 C 243.519 65.608, 246.353 74.040, 255.607 86.194 C 263.718 96.846, 265.261 100.306, 265.776 109 C 266.338 118.490, 265.081 123.082, 259.755 130.998 C 257.415 134.477, 254.715 138.488, 253.755 139.912 C 250.973 144.040, 251.468 149.622, 254.923 153.077 C 260.211 158.365, 266.932 156.615, 273.116 148.339 C 283.026 135.079, 287 124.811, 287 112.468 C 287 98.798, 283.306 88.511, 273.931 76.069 C 266.516 66.229, 264.800 62.200, 264.800 54.636 C 264.800 49.747, 265.442 47.456, 268.400 41.794 C 272.995 32.997, 273.034 29.834, 268.600 25.400 C 264.838 21.638, 262.181 21.217, 257.324 23.612 M 4.961 176.461 C -0.253 179.298, -0.178 178.270, 0.291 240.570 C 0.768 303.842, 0.773 303.900, 7.408 328.255 C 18.041 367.288, 42.292 405.357, 73.391 431.836 L 78.282 436 42.064 436 L 5.846 436 2.923 438.923 C 0.300 441.546, 0 442.504, 0 448.263 C 0 464.080, 7.048 480.097, 19.475 492.525 C 28.730 501.780, 37.677 506.976, 49.609 510.028 C 57.130 511.951, 61.373 512, 222 512 C 382.627 512, 386.870 511.951, 394.391 510.028 C 406.323 506.976, 415.270 501.780, 424.525 492.525 C 436.912 480.137, 444 464.077, 444 448.396 C 444 443.195, 443.584 441.628, 441.587 439.306 L 439.174 436.500 390.761 436 L 342.348 435.500 351.702 427.187 C 362.213 417.846, 372.116 406.652, 381.168 393.881 L 387.278 385.261 407.889 384.699 C 430.231 384.090, 438.023 382.867, 450.722 377.978 C 478.105 367.433, 500.111 343.351, 508.353 314.909 C 512.364 301.069, 513.017 288.874, 512.788 232.076 C 512.669 202.600, 512.339 186.749, 512.038 196 C 511.658 207.665, 511.207 212.008, 510.499 210.820 C 507.738 206.183, 506.016 206.013, 461.750 206.006 L 420 206 419.978 193.750 C 419.954 180.688, 419.306 178.669, 414.316 176.117 C 412.746 175.314, 381.144 175, 302 175 C 222.856 175, 191.254 175.314, 189.684 176.117 C 183.378 179.342, 182.093 186.833, 186.918 192.234 L 189.836 195.500 295.035 195.768 L 400.233 196.036 399.700 242.268 C 399.407 267.696, 398.670 292.100, 398.064 296.500 C 396.607 307.064, 391.547 327.380, 387.927 337.197 C 373.576 376.119, 345.819 410.345, 310.412 432.777 L 305.325 436 210 436 L 114.675 436 109.588 432.777 C 74.181 410.345, 46.424 376.119, 32.073 337.197 C 28.453 327.380, 23.393 307.064, 21.936 296.500 C 21.330 292.100, 20.593 267.709, 20.300 242.298 L 19.767 196.096 55.467 195.798 L 91.166 195.500 94.083 192.234 C 98.907 186.833, 97.621 179.342, 91.316 176.117 C 87.831 174.335, 8.287 174.652, 4.961 176.461 M 137.826 176.712 C 130.729 181.115, 131.616 191.270, 139.381 194.515 C 143.378 196.185, 147.313 195.414, 150.364 192.364 C 154.935 187.792, 154.128 180.268, 148.712 176.966 C 144.809 174.586, 141.381 174.506, 137.826 176.712 M 0.467 235.500 C 0.467 265.750, 0.594 278.269, 0.749 263.321 C 0.905 248.372, 0.905 223.622, 0.749 208.321 C 0.594 193.019, 0.467 205.250, 0.467 235.500 M 420 236.500 L 420 246 441.435 246 C 453.224 246, 463.981 246.422, 465.339 246.939 C 466.697 247.455, 468.751 248.890, 469.904 250.127 C 471.902 252.271, 471.999 253.414, 471.988 274.439 C 471.975 298.755, 471.358 302.741, 465.869 313.955 C 463.767 318.251, 460.232 322.943, 455.583 327.611 C 444.669 338.568, 433.214 343.549, 416.330 344.678 L 407.161 345.291 405.435 349.896 C 404.485 352.428, 402.613 356.694, 401.274 359.376 L 398.839 364.252 413.669 363.735 C 430.883 363.134, 438.865 361.233, 451.473 354.728 C 463.169 348.693, 476.975 334.710, 482.800 323 C 490.679 307.158, 491.236 303.414, 491.752 262.750 L 492.207 227 456.103 227 L 420 227 420 236.500 M 356.230 263.551 C 352.680 266.038, 352.007 268.269, 351.049 280.727 C 349.955 294.962, 347.869 305.517, 343.781 317.500 C 337.969 334.537, 327.767 352.285, 316.574 364.829 C 313.501 368.272, 310.270 372.184, 309.394 373.522 C 305.109 380.062, 309.647 389, 317.253 389 C 322.627 389, 323.954 388.087, 331.860 378.953 C 356.448 350.547, 371.919 311.301, 371.983 277.173 C 371.999 268.187, 371.893 267.739, 369.077 264.923 C 365.709 261.555, 359.957 260.941, 356.230 263.551 M 420 277.276 C 420 288.965, 418.766 300.259, 415.991 313.955 C 414.938 319.155, 414.288 323.621, 414.546 323.880 C 415.470 324.803, 427.274 322.046, 431.820 319.845 C 434.365 318.613, 438.345 315.708, 440.663 313.390 C 448.969 305.084, 451.978 295.352, 451.992 276.750 L 452 267 436 267 L 420 267 420 277.276 M 279.775 395.559 C 274.143 398.615, 273.217 405.973, 277.816 411.121 C 284.019 418.062, 295 413.452, 295 403.907 C 295 395.987, 287.035 391.619, 279.775 395.559 M 22 456.962 C 22 459.944, 26.580 469.268, 30.475 474.215 C 35.901 481.107, 43.200 486.208, 51.978 489.245 L 58.500 491.500 222 491.500 L 385.500 491.500 392.022 489.245 C 400.800 486.208, 408.099 481.107, 413.525 474.215 C 417.420 469.268, 422 459.944, 422 456.962 C 422 456.349, 349.470 456, 222 456 C 94.530 456, 22 456.349, 22 456.962" stroke="none" fill="#000000" fill-rule="evenodd"/></svg>