<svg xmlns="http://www.w3.org/2000/svg" width="512" height="512" viewBox="0 0 512 512" version="1.1"><path d="M 24.077 3.077 C 21.470 5.684, 21 6.910, 21 11.103 C 21 18.630, 62.800 435.977, 63.966 440.087 C 64.525 442.060, 65.829 444.440, 66.863 445.376 C 69.221 447.510, 262.398 511.995, 266.494 512.015 C 270.713 512.036, 440.575 448.229, 444.021 445.329 C 445.540 444.051, 447.086 441.795, 447.457 440.314 C 447.829 438.833, 457.736 341.611, 469.473 224.265 C 485.593 63.104, 490.583 10.075, 489.872 7.500 C 489.355 5.625, 487.761 3.171, 486.331 2.045 L 483.730 0 255.442 0 L 27.154 0 24.077 3.077 M 44 24.025 C 44 30.020, 84.153 428.515, 84.818 429.125 C 85.193 429.469, 126.225 443.300, 176 459.862 L 266.500 489.973 346.423 459.980 C 390.381 443.484, 426.508 429.825, 426.707 429.626 C 426.905 429.428, 436.042 339.318, 447.010 229.383 C 457.978 119.447, 467.216 27.588, 467.537 25.250 L 468.123 21 256.061 21 L 44 21 44 24.025 M 111.117 108.631 C 108.311 110.596, 105.798 116.197, 106.601 118.694 C 107.967 122.943, 109.600 125.259, 112.165 126.585 C 114.434 127.758, 125.069 128, 174.450 128 L 234 128 234 248.869 L 234 369.739 206.949 361.986 C 192.072 357.721, 179.767 354.068, 179.606 353.866 C 179.446 353.665, 177.412 343.825, 175.088 332 C 168.853 300.276, 168.812 300.184, 160.568 299.255 C 156.428 298.788, 155.762 299.038, 152.527 302.273 C 150.493 304.307, 149 306.795, 149 308.150 C 148.999 309.442, 151.530 323.163, 154.624 338.640 C 158.908 360.069, 160.758 367.417, 162.382 369.454 C 164.249 371.796, 169.248 373.494, 202.507 383.083 C 223.403 389.108, 242.445 394.101, 244.821 394.178 C 248.442 394.296, 249.658 393.804, 252.321 391.140 L 255.500 387.962 255.795 254.731 C 255.957 181.454, 255.806 119.514, 255.459 117.087 C 255.038 114.142, 253.885 111.731, 251.991 109.837 L 249.154 107 181.299 107 C 120.186 107, 113.214 107.162, 111.117 108.631 M 280.766 109.918 L 277.500 112.835 277.229 179.927 C 276.992 238.695, 277.149 247.388, 278.496 249.993 C 281.554 255.906, 282.252 256, 322.950 256 C 343.328 256, 360 256.241, 360 256.535 C 360 257.469, 342.911 351.432, 342.454 353.012 C 342.171 353.990, 333.087 357.484, 316.758 362.896 C 281.142 374.700, 281.158 374.694, 278.928 378.350 C 276.488 382.351, 276.495 385.660, 278.952 389.689 C 280.256 391.828, 282.139 393.221, 284.673 393.920 C 288.162 394.884, 291.093 394.085, 323.201 383.419 C 353.192 373.457, 358.218 371.502, 359.891 369.153 C 361.349 367.106, 364.571 351.353, 372.888 305.619 C 382.910 250.510, 383.823 244.512, 382.628 241.654 C 379.984 235.328, 381.454 235.547, 338.098 235 L 298.500 234.500 298.241 181.250 L 297.982 128 339.372 128 L 380.761 128 376.764 143.968 C 372.474 161.106, 372.446 163.537, 376.495 167.586 C 378.351 169.442, 379.978 170, 383.531 170 C 391.685 170, 392.726 168.137, 399.318 141.765 C 402.443 129.262, 405 118.081, 405 116.920 C 405 113.890, 402.065 109.351, 399.288 108.085 C 397.665 107.346, 378.918 107, 340.469 107 L 284.032 107 280.766 109.918" stroke="none" fill="#060504" fill-rule="evenodd"/><path d="M 44 24.025 C 44 30.020, 84.153 428.515, 84.818 429.125 C 85.193 429.469, 126.225 443.300, 176 459.862 L 266.500 489.973 346.423 459.980 C 390.381 443.484, 426.508 429.825, 426.707 429.626 C 426.905 429.428, 436.042 339.318, 447.010 229.383 C 457.978 119.447, 467.216 27.588, 467.537 25.250 L 468.123 21 256.061 21 L 44 21 44 24.025 M 111.117 108.631 C 108.311 110.596, 105.798 116.197, 106.601 118.694 C 107.967 122.943, 109.600 125.259, 112.165 126.585 C 114.434 127.758, 125.069 128, 174.450 128 L 234 128 234 248.869 L 234 369.739 206.949 361.986 C 192.072 357.721, 179.767 354.068, 179.606 353.866 C 179.446 353.665, 177.412 343.825, 175.088 332 C 168.853 300.276, 168.812 300.184, 160.568 299.255 C 156.428 298.788, 155.762 299.038, 152.527 302.273 C 150.493 304.307, 149 306.795, 149 308.150 C 148.999 309.442, 151.530 323.163, 154.624 338.640 C 158.908 360.069, 160.758 367.417, 162.382 369.454 C 164.249 371.796, 169.248 373.494, 202.507 383.083 C 223.403 389.108, 242.445 394.101, 244.821 394.178 C 248.442 394.296, 249.658 393.804, 252.321 391.140 L 255.500 387.962 255.795 254.731 C 255.957 181.454, 255.806 119.514, 255.459 117.087 C 255.038 114.142, 253.885 111.731, 251.991 109.837 L 249.154 107 181.299 107 C 120.186 107, 113.214 107.162, 111.117 108.631 M 280.766 109.918 L 277.500 112.835 277.229 179.927 C 276.992 238.695, 277.149 247.388, 278.496 249.993 C 281.554 255.906, 282.252 256, 322.950 256 C 343.328 256, 360 256.241, 360 256.535 C 360 257.469, 342.911 351.432, 342.454 353.012 C 342.171 353.990, 333.087 357.484, 316.758 362.896 C 281.142 374.700, 281.158 374.694, 278.928 378.350 C 276.488 382.351, 276.495 385.660, 278.952 389.689 C 280.256 391.828, 282.139 393.221, 284.673 393.920 C 288.162 394.884, 291.093 394.085, 323.201 383.419 C 353.192 373.457, 358.218 371.502, 359.891 369.153 C 361.349 367.106, 364.571 351.353, 372.888 305.619 C 382.910 250.510, 383.823 244.512, 382.628 241.654 C 379.984 235.328, 381.454 235.547, 338.098 235 L 298.500 234.500 298.241 181.250 L 297.982 128 339.372 128 L 380.761 128 376.764 143.968 C 372.474 161.106, 372.446 163.537, 376.495 167.586 C 378.351 169.442, 379.978 170, 383.531 170 C 391.685 170, 392.726 168.137, 399.318 141.765 C 402.443 129.262, 405 118.081, 405 116.920 C 405 113.890, 402.065 109.351, 399.288 108.085 C 397.665 107.346, 378.918 107, 340.469 107 L 284.032 107 280.766 109.918" stroke="none" fill="#fbc304" fill-rule="evenodd"/></svg>